# xmcd
#
# Track frame offsets: 
#        150
#        12885
#        28022
#        40915
#        53472
#        71955
#        87187
#        97997
#        111587
#        127622
#        140375
#        159665
#        178285
#        190602
#        209347
#        219865
#        236062
#        251455
#        265690
#        277390
#
# Disc length: 3879 seconds
#
# Revision: 3
# Processed by: cddbd v1.5.1PL0 Copyright (c) Steve Scherf et al.
# Submitted via: ExactAudioCopy v0.95a5
#
DISCID=1c0f2514
DTITLE=Don Williams - IBelieveInYou-EspeciallyForYou
DYEAR=1980
DGENRE=Country
TTITLE0=Falling Again
TTITLE1=It's Good To See You
TTITLE2=I Want You Back Again
TTITLE3=Simple Song
TTITLE4=I Believe In You
TTITLE5=Ain't It Amazing
TTITLE6=Just Enough Love (For One Woman)
TTITLE7=I Keep Putting Off Getting Over You
TTITLE8=Rainy Nights And Memories
TTITLE9=Slowly But Surely
TTITLE10=Fairweather Friends
TTITLE11=I Don't Want To Love You
TTITLE12=Years From Now
TTITLE13=Lord, I Hope This Day Is Good
TTITLE14=Especially You
TTITLE15=If I Needed You (Duett with Emmylou Harris)
TTITLE16=Now And Then
TTITLE17=Smooth Talking Baby
TTITLE18=I've Got You To Thank For That
TTITLE19=Miracles
EXTD=Double Album\nmore info\nMillenniumMusicProjectFormat, syntax as 
EXTD=follows:\nTitle{Subtitle}[info](Lyricist;Composer;Date,Artist,Loc
EXTD=ation)[info]\ncorrections to: windking3@yahoo.com
EXTT0=
EXTT1=
EXTT2=
EXTT3=
EXTT4=
EXTT5=
EXTT6=
EXTT7=
EXTT8=
EXTT9=
EXTT10=
EXTT11=
EXTT12=
EXTT13=
EXTT14=
EXTT15=
EXTT16=
EXTT17=
EXTT18=
EXTT19=
PLAYORDER=
